<svg width="22" height="22" viewBox="0 0 22 22" fill="none" xmlns="http://www.w3.org/2000/svg">
<path d="M20.2318 0H1.76825C0.792 0 0 0.792 0 1.76825V20.2318C0 21.208 0.792 22 1.76825 22H20.2318C21.208 22 22 21.208 22 20.2318V1.76825C22 0.792 21.208 0 20.2318 0ZM20.2318 20.24C7.91725 20.2372 1.76 20.2345 1.76 20.2318C1.76275 7.91725 1.7655 1.76 1.76825 1.76C14.0827 1.76275 20.24 1.7655 20.24 1.76825C20.2372 14.0827 20.2345 20.24 20.2318 20.24ZM3.2615 8.24725H6.52575V18.7467H3.2615V8.24725ZM4.895 6.81175C5.93725 6.81175 6.787 5.96475 6.787 4.91975C6.787 4.67129 6.73806 4.42526 6.64298 4.19571C6.5479 3.96617 6.40853 3.75759 6.23285 3.5819C6.05716 3.40622 5.84858 3.26685 5.61904 3.17177C5.38949 3.07669 5.14346 3.02775 4.895 3.02775C4.64654 3.02775 4.40051 3.07669 4.17096 3.17177C3.94142 3.26685 3.73284 3.40622 3.55715 3.5819C3.38147 3.75759 3.2421 3.96617 3.14702 4.19571C3.05194 4.42526 3.003 4.67129 3.003 4.91975C3.00025 5.96475 3.84725 6.81175 4.895 6.81175ZM11.8333 13.552C11.8333 12.1825 12.0945 10.857 13.7913 10.857C15.4633 10.857 15.488 12.4218 15.488 13.64V18.7467H18.7495V12.9882C18.7495 10.1612 18.139 7.986 14.8363 7.986C13.2495 7.986 12.1853 8.85775 11.748 9.68275H11.704V8.24725H8.57175V18.7467H11.8333V13.552Z" fill="white"/>
</svg>
